<svg width="40" height="40" viewBox="0 0 40 40" fill="none" xmlns="http://www.w3.org/2000/svg">
<circle cx="20" cy="20" r="20" fill="#C5DCFF"/>
<path d="M18.1407 19.0494C18.1407 17.5884 16.9517 16.3994 15.4908 16.3994C14.0298 16.3994 12.8408 17.5884 12.8408 19.0494C12.8408 20.5103 14.0298 21.6993 15.4908 21.6993C16.9517 21.6993 18.1407 20.5103 18.1407 19.0494ZM14.2368 19.0494C14.2368 18.3607 14.8007 17.7955 15.4907 17.7955C16.1793 17.7955 16.7445 18.3594 16.7445 19.0494C16.7445 19.738 16.1806 20.3032 15.4907 20.3032C14.8007 20.302 14.2368 19.7381 14.2368 19.0494Z" fill="#051E76"/>
<path d="M24.3184 16.3984C22.8575 16.3984 21.6685 17.5874 21.6685 19.0484C21.6685 20.5093 22.8575 21.6983 24.3184 21.6983C25.7794 21.6983 26.9684 20.5093 26.9684 19.0484C26.9696 17.5874 25.7806 16.3984 24.3184 16.3984ZM24.3184 20.3023C23.6297 20.3023 23.0645 19.7384 23.0645 19.0485C23.0645 18.3598 23.6285 17.7946 24.3184 17.7946C25.0071 17.7946 25.5723 18.3585 25.5723 19.0485C25.5723 19.7384 25.0084 20.3023 24.3184 20.3023Z" fill="#051E76"/>
<path d="M19.9045 13.5342H20.6268V11.029C21.2407 10.7532 21.6674 10.1382 21.6674 9.42206C21.6674 8.44766 20.8776 7.65918 19.9045 7.65918C18.9301 7.65918 18.1416 8.44894 18.1416 9.42206C18.1416 10.1382 18.5695 10.7533 19.1821 11.029V13.5342H19.9045Z" fill="#051E76"/>
<path d="M22.7181 22.4717H17.0914C15.8413 22.4717 14.8232 23.4885 14.8232 24.7399C14.8232 25.99 15.8401 27.0068 17.0914 27.0068H22.7194C23.9695 27.0068 24.9876 25.99 24.9876 24.7399C24.9863 23.4897 23.9683 22.4717 22.7181 22.4717ZM17.765 25.6094H17.0913C16.611 25.6094 16.2204 25.2189 16.2204 24.7386C16.2204 24.2583 16.611 23.8677 17.0913 23.8677H17.7663L17.765 25.6094ZM20.647 25.6094H19.1624V23.869H20.647V25.6094ZM22.7181 25.6094H22.0431V23.869H22.7181C23.1984 23.869 23.5889 24.2595 23.5889 24.7399C23.5889 25.2202 23.1984 25.6094 22.7181 25.6094Z" fill="#051E76"/>
<rect x="16.0723" y="23.6289" width="7.66537" height="2.23573" rx="1.11787" fill="#C5DCFF"/>
<path d="M31.4937 17.5308H29.8843C29.8231 15.1316 27.8569 13.1992 25.4428 13.1992H20.6271V13.5348H19.1823V13.1992H14.3653C11.9524 13.1992 9.98613 15.133 9.92385 17.5308H8.3144C6.78108 17.5308 5.53223 18.7797 5.53223 20.3142V22.6722C5.53223 24.2068 6.78111 25.4556 8.31565 25.4556H9.92509C9.98623 27.8548 11.9525 29.7872 14.3665 29.7872H25.4443C27.8572 29.7872 29.8234 27.8534 29.8857 25.4556H31.4952C33.0297 25.4556 34.2786 24.2068 34.2786 22.6722V20.3142C34.2773 18.7796 33.0285 17.5308 31.4939 17.5308H31.4937ZM9.43949 24.0595H8.3154C7.55311 24.0595 6.92803 23.4357 6.92803 22.6721V20.3141C6.92803 19.5518 7.55183 18.9267 8.3154 18.9267H9.43949V24.0595ZM28.493 25.342C28.493 27.0238 27.1244 28.3924 25.4426 28.3924L14.3649 28.3912C12.6831 28.3912 11.3144 27.0225 11.3144 25.3407L11.3157 17.6454C11.3157 15.9636 12.6831 14.5962 14.3661 14.5962H25.4439C27.1256 14.5962 28.4943 15.9635 28.4943 17.6454L28.493 25.342ZM32.8796 22.6721C32.8796 23.4344 32.2558 24.0595 31.4922 24.0595H30.3681L30.3693 18.9281H31.4934C32.2557 18.9281 32.8808 19.5519 32.8808 20.3155L32.8796 22.6721Z" fill="#051E76"/>
</svg>
