<svg width="40" height="40" viewBox="0 0 40 40" fill="none" xmlns="http://www.w3.org/2000/svg">
<circle cx="20" cy="20" r="20" fill="white"/>
<path d="M18.1407 19.0503C18.1407 17.5894 16.9517 16.4004 15.4908 16.4004C14.0298 16.4004 12.8408 17.5894 12.8408 19.0503C12.8408 20.5113 14.0298 21.7003 15.4908 21.7003C16.9517 21.7003 18.1407 20.5113 18.1407 19.0503ZM14.2368 19.0503C14.2368 18.3617 14.8007 17.7965 15.4907 17.7965C16.1793 17.7965 16.7445 18.3604 16.7445 19.0503C16.7445 19.739 16.1806 20.3042 15.4907 20.3042C14.8007 20.303 14.2368 19.739 14.2368 19.0503Z" fill="#051E76"/>
<path d="M24.3184 16.3994C22.8575 16.3994 21.6685 17.5884 21.6685 19.0494C21.6685 20.5103 22.8575 21.6993 24.3184 21.6993C25.7794 21.6993 26.9684 20.5103 26.9684 19.0494C26.9696 17.5884 25.7806 16.3994 24.3184 16.3994ZM24.3184 20.3033C23.6297 20.3033 23.0645 19.7394 23.0645 19.0495C23.0645 18.3608 23.6285 17.7956 24.3184 17.7956C25.0071 17.7956 25.5723 18.3595 25.5723 19.0495C25.5723 19.7394 25.0084 20.3033 24.3184 20.3033Z" fill="#051E76"/>
<path d="M19.9045 13.5347H20.6268V11.0295C21.2407 10.7537 21.6674 10.1386 21.6674 9.42254C21.6674 8.44815 20.8776 7.65967 19.9045 7.65967C18.9301 7.65967 18.1416 8.44942 18.1416 9.42254C18.1416 10.1387 18.5695 10.7538 19.1821 11.0295V13.5347H19.9045Z" fill="#051E76"/>
<path d="M22.7181 22.4727H17.0914C15.8413 22.4727 14.8232 23.4895 14.8232 24.7408C14.8232 25.991 15.8401 27.0078 17.0914 27.0078H22.7194C23.9695 27.0078 24.9876 25.991 24.9876 24.7408C24.9863 23.4907 23.9683 22.4727 22.7181 22.4727ZM17.765 25.6104H17.0913C16.611 25.6104 16.2204 25.2199 16.2204 24.7396C16.2204 24.2592 16.611 23.8687 17.0913 23.8687H17.7663L17.765 25.6104ZM20.647 25.6104H19.1624V23.87H20.647V25.6104ZM22.7181 25.6104H22.0431V23.87H22.7181C23.1984 23.87 23.5889 24.2605 23.5889 24.7408C23.5889 25.2212 23.1984 25.6104 22.7181 25.6104Z" fill="#051E76"/>
<rect x="16.0723" y="23.6294" width="7.66537" height="2.23573" rx="1.11787" fill="white"/>
<path d="M31.4937 17.5313H29.8843C29.8231 15.1321 27.8569 13.1997 25.4428 13.1997H20.6271V13.5353H19.1823V13.1997H14.3653C11.9524 13.1997 9.98613 15.1335 9.92385 17.5313H8.3144C6.78108 17.5313 5.53223 18.7802 5.53223 20.3147V22.6727C5.53223 24.2073 6.78111 25.4561 8.31565 25.4561H9.92509C9.98623 27.8553 11.9525 29.7877 14.3665 29.7877H25.4443C27.8572 29.7877 29.8234 27.8539 29.8857 25.4561H31.4952C33.0297 25.4561 34.2786 24.2072 34.2786 22.6727V20.3147C34.2773 18.7801 33.0285 17.5313 31.4939 17.5313H31.4937ZM9.43949 24.0599H8.3154C7.55311 24.0599 6.92803 23.4361 6.92803 22.6726V20.3146C6.92803 19.5523 7.55183 18.9272 8.3154 18.9272H9.43949V24.0599ZM28.493 25.3425C28.493 27.0243 27.1244 28.3929 25.4426 28.3929L14.3649 28.3917C12.6831 28.3917 11.3144 27.023 11.3144 25.3412L11.3157 17.6458C11.3157 15.9641 12.6831 14.5967 14.3661 14.5967H25.4439C27.1256 14.5967 28.4943 15.964 28.4943 17.6458L28.493 25.3425ZM32.8796 22.6726C32.8796 23.4349 32.2558 24.0599 31.4922 24.0599H30.3681L30.3693 18.9286H31.4934C32.2557 18.9286 32.8808 19.5524 32.8808 20.316L32.8796 22.6726Z" fill="#051E76"/>
</svg>
