<svg width="14" height="14" viewBox="0 0 14 14" fill="none" xmlns="http://www.w3.org/2000/svg">
<path d="M7.48319 7.4889L7.48316 7.48888C7.21343 7.74916 6.78522 7.74577 6.51974 7.48028C6.25428 7.21481 6.25085 6.78661 6.51115 6.51686L6.51425 6.51366L6.51428 6.51368L11.028 2H8.31253C7.93274 2 7.62503 1.6923 7.62503 1.3125C7.62503 0.932705 7.93274 0.625 8.31253 0.625H12.6875C12.8694 0.625 13.0447 0.697007 13.1738 0.826198M7.48319 7.4889L12.9971 1.00297M7.48319 7.4889L7.48634 7.48575L12 2.97207M7.48319 7.4889L12 2.61851M13.1738 0.826198L12.9971 1.00297M13.1738 0.826198C13.1738 0.826196 13.1738 0.826193 13.1738 0.826191L12.9971 1.00297M13.1738 0.826198C13.303 0.955379 13.375 1.13064 13.375 1.31249V5.68749C13.375 6.06729 13.0673 6.37499 12.6875 6.37499C12.3077 6.37499 12 6.06729 12 5.68749V2.97207M12.9971 1.00297C13.0791 1.085 13.125 1.19656 13.125 1.31249V5.68749C13.125 5.92922 12.9293 6.12499 12.6875 6.12499C12.4458 6.12499 12.25 5.92922 12.25 5.68749V2.72207L12 2.97207M12 2.97207V2.61851M12 2.61851L12.25 2.36851L12 2.61851ZM12 2.61851L7.30957 7.30897C7.13784 7.47468 6.8655 7.47249 6.69652 7.30351C6.52754 7.13452 6.52534 6.86218 6.69105 6.69046L12 2.61851ZM11.6315 1.75H11.278L11.3815 2L11.6315 1.75ZM10.0598 13.3761C10.4746 13.3761 10.8731 13.2123 11.1665 12.9183L11.3739 11.8115H11.6239V11.8111V9.62619C11.6239 9.626 11.6239 9.62582 11.6239 9.62564C11.6236 9.2461 11.316 8.93869 10.9364 8.93869C10.5574 8.93869 10.2489 9.24619 10.2489 9.62619V11.8115V11.812H10.3819L10.2489 11.8126C10.2492 11.863 10.2296 11.9105 10.1942 11.9459C10.1589 11.9811 10.1106 12.0012 10.0598 12.0012H2.18978C2.08655 12.0004 2.00247 11.9177 1.99999 11.8145V3.93423C1.99999 3.83345 2.08207 3.75 2.1864 3.75H4.37502C4.75482 3.75 5.06252 3.4423 5.06252 3.0625C5.06252 2.84012 4.95702 2.64245 4.79332 2.5168L4.91291 2.37499H4.37503H2.18641C1.32481 2.37499 0.625 3.07154 0.625 3.93422V11.8169C0.625 12.6783 1.33226 13.3761 2.18914 13.3761H10.0598Z" fill="white" stroke="white" stroke-width="0.5"/>
</svg>
