{
	"asset":{
		"version":"2.0",
		"generator":"Created using the official Cinema 4D glTF Exporter 1.000x290161"
	},
	"scenes":[{
		"nodes":[0]
	}],
	"nodes":[{
		"name":"iP",
		"translation":[0.0,
		57.99382400512695,
		-3.379591941833496],
		"rotation":[0.09060439467430115,
		6.750553449563768e-10,
		7.4199362209981249e-9,
		-0.9958869814872742],
		"scale":[0.00180360721424222,
		0.003746673231944442,
		0.003746673231944442],
		"children":[1,
		2,
		3,
		4,
		5,
		10,
		11,
		12,
		13,
		14]
	},
	{
		"name":"Cylinder.1",
		"translation":[-46.718326568603519,
		133.3664093017578,
		-5.008429527282715],
		"rotation":[0.0,
		0.0,
		0.0,
		-1.0],
		"scale":[1.0,
		1.0,
		1.0],
		"mesh":0
	},
	{
		"name":"Cylinder",
		"translation":[-24.940404891967775,
		139.36036682128907,
		-5.008429527282715],
		"rotation":[0.0,
		0.0,
		0.0,
		-1.0],
		"scale":[1.0,
		1.0,
		1.0],
		"mesh":1
	},
	{
		"name":"Cylinder.4",
		"translation":[-46.89065933227539,
		155.87051391601563,
		-5.008429527282715],
		"rotation":[0.0,
		0.0,
		0.0,
		-1.0],
		"scale":[1.0,
		1.0,
		1.0],
		"mesh":2
	},
	{
		"name":"Cylinder.3",
		"translation":[-24.371912002563478,
		159.4963836669922,
		-5.163196563720703],
		"rotation":[0.0,
		0.0,
		0.0,
		-1.0],
		"scale":[1.0,
		1.0,
		1.0],
		"mesh":3
	},
	{
		"name":"Null",
		"translation":[0.37191787362098696,
		50.91230010986328,
		4.7490153312683109],
		"rotation":[0.0,
		0.0,
		0.0,
		-1.0],
		"scale":[1.0,
		1.0,
		1.0],
		"children":[6,
		7,
		8,
		9]
	},
	{
		"name":"Cylinder.3",
		"translation":[-24.74382972717285,
		108.58409118652344,
		-9.473838806152344],
		"rotation":[0.0,
		0.0,
		0.0,
		-1.0],
		"scale":[1.0,
		1.0,
		1.0],
		"mesh":4
	},
	{
		"name":"Cylinder.2",
		"translation":[-47.262577056884769,
		82.68143463134766,
		-9.473838806152344],
		"rotation":[0.0,
		0.0,
		0.0,
		-1.0],
		"scale":[1.0,
		1.0,
		1.0],
		"mesh":5
	},
	{
		"name":"Cylinder.1",
		"translation":[-47.262577056884769,
		104.95821380615235,
		-9.473838806152344],
		"rotation":[0.0,
		0.0,
		0.0,
		-1.0],
		"scale":[1.0,
		1.0,
		1.0],
		"mesh":6
	},
	{
		"name":"Cylinder",
		"translation":[-24.74382972717285,
		88.11224365234375,
		-9.473838806152344],
		"rotation":[0.0,
		0.0,
		0.0,
		-1.0],
		"scale":[1.0,
		1.0,
		1.0],
		"mesh":7
	},
	{
		"name":"Cube",
		"translation":[-36.00352096557617,
		144.38360595703126,
		-3.2060980796813967],
		"rotation":[0.0,
		0.0,
		0.0,
		-1.0],
		"scale":[1.0,
		1.0,
		1.0],
		"mesh":8
	},
	{
		"name":"Body",
		"translation":[-4.34773063659668,
		38.97014617919922,
		3.1312477588653566],
		"rotation":[0.0,
		0.0,
		0.0,
		-1.0],
		"scale":[1.0,
		1.0,
		1.0],
		"mesh":9
	},
	{
		"name":"Glass",
		"translation":[-4.105614185333252,
		38.818817138671878,
		10.704800605773926],
		"rotation":[0.0,
		0.0,
		0.0,
		-1.0],
		"scale":[1.0,
		1.0,
		1.0],
		"mesh":10
	},
	{
		"name":"Screen",
		"translation":[-4.530237197875977,
		44.167510986328128,
		9.518593788146973],
		"rotation":[0.0,
		-1.0,
		0.0,
		-2.832769343193999e-16],
		"scale":[1.0,
		1.0,
		1.0],
		"mesh":11
	},
	{
		"name":"Helmet",
		"translation":[-4.34773063659668,
		38.97014617919922,
		3.1312477588653566],
		"rotation":[0.0,
		0.0,
		0.0,
		-1.0],
		"scale":[1.0,
		1.0,
		1.0],
		"mesh":12
	}],
	"meshes":[{
		"primitives":[{
			"attributes":{
				"POSITION":3,
				"NORMAL":4,
				"TEXCOORD_0":5
			},
			"indices":2,
			"material":0
		}]
	},
	{
		"primitives":[{
			"attributes":{
				"POSITION":7,
				"NORMAL":8,
				"TEXCOORD_0":9
			},
			"indices":6,
			"material":0
		}]
	},
	{
		"primitives":[{
			"attributes":{
				"POSITION":11,
				"NORMAL":12,
				"TEXCOORD_0":13
			},
			"indices":10,
			"material":0
		}]
	},
	{
		"primitives":[{
			"attributes":{
				"POSITION":15,
				"NORMAL":16,
				"TEXCOORD_0":17
			},
			"indices":14,
			"material":0
		}]
	},
	{
		"primitives":[{
			"attributes":{
				"POSITION":19,
				"NORMAL":20,
				"TEXCOORD_0":21
			},
			"indices":18,
			"material":1
		}]
	},
	{
		"primitives":[{
			"attributes":{
				"POSITION":23,
				"NORMAL":24,
				"TEXCOORD_0":25
			},
			"indices":22,
			"material":1
		}]
	},
	{
		"primitives":[{
			"attributes":{
				"POSITION":27,
				"NORMAL":28,
				"TEXCOORD_0":29
			},
			"indices":26,
			"material":1
		}]
	},
	{
		"primitives":[{
			"attributes":{
				"POSITION":31,
				"NORMAL":32,
				"TEXCOORD_0":33
			},
			"indices":30,
			"material":1
		}]
	},
	{
		"primitives":[{
			"attributes":{
				"POSITION":35,
				"NORMAL":36,
				"TEXCOORD_0":37
			},
			"indices":34,
			"material":1
		}]
	},
	{
		"primitives":[{
			"attributes":{
				"POSITION":39,
				"NORMAL":40,
				"TEXCOORD_0":41
			},
			"indices":38,
			"material":1
		}]
	},
	{
		"primitives":[{
			"attributes":{
				"POSITION":43,
				"NORMAL":44,
				"TEXCOORD_0":45
			},
			"indices":42,
			"material":2
		}]
	},
	{
		"primitives":[{
			"attributes":{
				"POSITION":47,
				"NORMAL":48,
				"TEXCOORD_0":49
			},
			"indices":46,
			"material":3
		}]
	},
	{
		"primitives":[{
			"attributes":{
				"POSITION":51,
				"NORMAL":52,
				"TEXCOORD_0":53
			},
			"indices":50,
			"material":1
		}]
	}],
	"accessors":[{
		"bufferView":0,
		"type":"SCALAR",
		"componentType":5126,
		"count":4,
		"byteOffset":0,
		"max":[2.359999895095825],
		"min":[0.0]
	},
	{
		"bufferView":0,
		"type":"VEC3",
		"componentType":5126,
		"count":4,
		"byteOffset":16,
		"max":[0.5,
		0.5,
		0.5],
		"min":[0.0,
		0.0,
		0.0]
	},
	{
		"bufferView":1,
		"type":"SCALAR",
		"componentType":5123,
		"count":480,
		"byteOffset":0,
		"max":[118],
		"min":[0]
	},
	{
		"bufferView":2,
		"type":"VEC3",
		"componentType":5126,
		"count":119,
		"byteOffset":0,
		"max":[8.559698104858399,
		8.559698104858399,
		1.0],
		"min":[-8.559698104858399,
		-8.559698104858399,
		-1.0]
	},
	{
		"bufferView":2,
		"type":"VEC3",
		"componentType":5126,
		"count":119,
		"byteOffset":12,
		"max":[1.0,
		1.0,
		1.0],
		"min":[-1.0,
		-1.0,
		-1.0]
	},
	{
		"bufferView":2,
		"type":"VEC2",
		"componentType":5126,
		"count":119,
		"byteOffset":24,
		"max":[1.0,
		1.0],
		"min":[0.0,
		0.0]
	},
	{
		"bufferView":3,
		"type":"SCALAR",
		"componentType":5123,
		"count":480,
		"byteOffset":0,
		"max":[118],
		"min":[0]
	},
	{
		"bufferView":4,
		"type":"VEC3",
		"componentType":5126,
		"count":119,
		"byteOffset":0,
		"max":[8.559698104858399,
		8.559698104858399,
		1.0],
		"min":[-8.559698104858399,
		-8.559698104858399,
		-1.0]
	},
	{
		"bufferView":4,
		"type":"VEC3",
		"componentType":5126,
		"count":119,
		"byteOffset":12,
		"max":[1.0,
		1.0,
		1.0],
		"min":[-1.0,
		-1.0,
		-1.0]
	},
	{
		"bufferView":4,
		"type":"VEC2",
		"componentType":5126,
		"count":119,
		"byteOffset":24,
		"max":[1.0,
		1.0],
		"min":[0.0,
		0.0]
	},
	{
		"bufferView":5,
		"type":"SCALAR",
		"componentType":5123,
		"count":480,
		"byteOffset":0,
		"max":[118],
		"min":[0]
	},
	{
		"bufferView":6,
		"type":"VEC3",
		"componentType":5126,
		"count":119,
		"byteOffset":0,
		"max":[8.559698104858399,
		8.559698104858399,
		1.0],
		"min":[-8.559698104858399,
		-8.559698104858399,
		-1.0]
	},
	{
		"bufferView":6,
		"type":"VEC3",
		"componentType":5126,
		"count":119,
		"byteOffset":12,
		"max":[1.0,
		1.0,
		1.0],
		"min":[-1.0,
		-1.0,
		-1.0]
	},
	{
		"bufferView":6,
		"type":"VEC2",
		"componentType":5126,
		"count":119,
		"byteOffset":24,
		"max":[1.0,
		1.0],
		"min":[0.0,
		0.0]
	},
	{
		"bufferView":7,
		"type":"SCALAR",
		"componentType":5123,
		"count":480,
		"byteOffset":0,
		"max":[118],
		"min":[0]
	},
	{
		"bufferView":8,
		"type":"VEC3",
		"componentType":5126,
		"count":119,
		"byteOffset":0,
		"max":[3.5193750858306886,
		3.5193750858306886,
		1.0],
		"min":[-3.5193750858306886,
		-3.5193750858306886,
		-1.0]
	},
	{
		"bufferView":8,
		"type":"VEC3",
		"componentType":5126,
		"count":119,
		"byteOffset":12,
		"max":[1.0,
		1.0,
		1.0],
		"min":[-1.0,
		-1.0,
		-1.0]
	},
	{
		"bufferView":8,
		"type":"VEC2",
		"componentType":5126,
		"count":119,
		"byteOffset":24,
		"max":[1.0,
		1.0],
		"min":[0.0,
		0.0]
	},
	{
		"bufferView":9,
		"type":"SCALAR",
		"componentType":5123,
		"count":480,
		"byteOffset":0,
		"max":[118],
		"min":[0]
	},
	{
		"bufferView":10,
		"type":"VEC3",
		"componentType":5126,
		"count":119,
		"byteOffset":0,
		"max":[4.851763725280762,
		4.851763725280762,
		1.0],
		"min":[-4.851763725280762,
		-4.851763725280762,
		-1.0]
	},
	{
		"bufferView":10,
		"type":"VEC3",
		"componentType":5126,
		"count":119,
		"byteOffset":12,
		"max":[1.0,
		1.0,
		1.0],
		"min":[-1.0,
		-1.0,
		-1.0]
	},
	{
		"bufferView":10,
		"type":"VEC2",
		"componentType":5126,
		"count":119,
		"byteOffset":24,
		"max":[1.0,
		1.0],
		"min":[0.0,
		0.0]
	},
	{
		"bufferView":11,
		"type":"SCALAR",
		"componentType":5123,
		"count":480,
		"byteOffset":0,
		"max":[118],
		"min":[0]
	},
	{
		"bufferView":12,
		"type":"VEC3",
		"componentType":5126,
		"count":119,
		"byteOffset":0,
		"max":[9.870723724365235,
		9.870723724365235,
		1.0],
		"min":[-9.870723724365235,
		-9.870723724365235,
		-1.0]
	},
	{
		"bufferView":12,
		"type":"VEC3",
		"componentType":5126,
		"count":119,
		"byteOffset":12,
		"max":[1.0,
		1.0,
		1.0],
		"min":[-1.0,
		-1.0,
		-1.0]
	},
	{
		"bufferView":12,
		"type":"VEC2",
		"componentType":5126,
		"count":119,
		"byteOffset":24,
		"max":[1.0,
		1.0],
		"min":[0.0,
		0.0]
	},
	{
		"bufferView":13,
		"type":"SCALAR",
		"componentType":5123,
		"count":480,
		"byteOffset":0,
		"max":[118],
		"min":[0]
	},
	{
		"bufferView":14,
		"type":"VEC3",
		"componentType":5126,
		"count":119,
		"byteOffset":0,
		"max":[9.870723724365235,
		9.870723724365235,
		1.0],
		"min":[-9.870723724365235,
		-9.870723724365235,
		-1.0]
	},
	{
		"bufferView":14,
		"type":"VEC3",
		"componentType":5126,
		"count":119,
		"byteOffset":12,
		"max":[1.0,
		1.0,
		1.0],
		"min":[-1.0,
		-1.0,
		-1.0]
	},
	{
		"bufferView":14,
		"type":"VEC2",
		"componentType":5126,
		"count":119,
		"byteOffset":24,
		"max":[1.0,
		1.0],
		"min":[0.0,
		0.0]
	},
	{
		"bufferView":15,
		"type":"SCALAR",
		"componentType":5123,
		"count":480,
		"byteOffset":0,
		"max":[118],
		"min":[0]
	},
	{
		"bufferView":16,
		"type":"VEC3",
		"componentType":5126,
		"count":119,
		"byteOffset":0,
		"max":[9.870723724365235,
		9.870723724365235,
		1.0],
		"min":[-9.870723724365235,
		-9.870723724365235,
		-1.0]
	},
	{
		"bufferView":16,
		"type":"VEC3",
		"componentType":5126,
		"count":119,
		"byteOffset":12,
		"max":[1.0,
		1.0,
		1.0],
		"min":[-1.0,
		-1.0,
		-1.0]
	},
	{
		"bufferView":16,
		"type":"VEC2",
		"componentType":5126,
		"count":119,
		"byteOffset":24,
		"max":[1.0,
		1.0],
		"min":[0.0,
		0.0]
	},
	{
		"bufferView":17,
		"type":"SCALAR",
		"componentType":5123,
		"count":132,
		"byteOffset":0,
		"max":[63],
		"min":[0]
	},
	{
		"bufferView":18,
		"type":"VEC3",
		"componentType":5126,
		"count":64,
		"byteOffset":0,
		"max":[22.79503631591797,
		22.79503631591797,
		1.5187256336212159],
		"min":[-22.79503631591797,
		-22.79503631591797,
		-1.5187256336212159]
	},
	{
		"bufferView":18,
		"type":"VEC3",
		"componentType":5126,
		"count":64,
		"byteOffset":12,
		"max":[0.9915434718132019,
		0.9807852506637573,
		1.0],
		"min":[-0.9915434718132019,
		-0.9807852506637573,
		-1.0]
	},
	{
		"bufferView":18,
		"type":"VEC2",
		"componentType":5126,
		"count":64,
		"byteOffset":24,
		"max":[1.1285064220428467,
		1.1285064220428467],
		"min":[-0.12850642204284669,
		-0.12850642204284669]
	},
	{
		"bufferView":19,
		"type":"SCALAR",
		"componentType":5123,
		"count":624,
		"byteOffset":0,
		"max":[219],
		"min":[0]
	},
	{
		"bufferView":20,
		"type":"VEC3",
		"componentType":5126,
		"count":220,
		"byteOffset":0,
		"max":[67.31346893310547,
		139.49989318847657,
		6.337345600128174],
		"min":[-67.31346893310547,
		-139.49989318847657,
		-6.337345600128174]
	},
	{
		"bufferView":20,
		"type":"VEC3",
		"componentType":5126,
		"count":220,
		"byteOffset":12,
		"max":[0.956570029258728,
		0.9915434718132019,
		1.0],
		"min":[-0.956570029258728,
		-0.9701046347618103,
		-0.9967184066772461]
	},
	{
		"bufferView":20,
		"type":"VEC2",
		"componentType":5126,
		"count":220,
		"byteOffset":24,
		"max":[1.2999534606933594,
		1.2999534606933594],
		"min":[-0.2999534010887146,
		-0.2999534606933594]
	},
	{
		"bufferView":21,
		"type":"SCALAR",
		"componentType":5123,
		"count":162,
		"byteOffset":0,
		"max":[77],
		"min":[0]
	},
	{
		"bufferView":22,
		"type":"VEC3",
		"componentType":5126,
		"count":78,
		"byteOffset":0,
		"max":[61.68845748901367,
		134.0419158935547,
		0.05000000074505806],
		"min":[-61.68846130371094,
		-134.0419158935547,
		-0.5013467073440552]
	},
	{
		"bufferView":22,
		"type":"VEC3",
		"componentType":5126,
		"count":78,
		"byteOffset":12,
		"max":[1.0,
		0.9919793009757996,
		1.0],
		"min":[-1.0,
		-1.0,
		-0.000010419885256851558]
	},
	{
		"bufferView":22,
		"type":"VEC2",
		"componentType":5126,
		"count":78,
		"byteOffset":24,
		"max":[1.0,
		1.0],
		"min":[0.0,
		0.0]
	},
	{
		"bufferView":23,
		"type":"SCALAR",
		"componentType":5123,
		"count":54,
		"byteOffset":0,
		"max":[23],
		"min":[0]
	},
	{
		"bufferView":24,
		"type":"VEC3",
		"componentType":5126,
		"count":24,
		"byteOffset":0,
		"max":[61.26383590698242,
		128.69320678710938,
		0.002199999988079071],
		"min":[-62.11308288574219,
		-139.39060974121095,
		-5.298140398624085e-11]
	},
	{
		"bufferView":24,
		"type":"VEC3",
		"componentType":5126,
		"count":24,
		"byteOffset":12,
		"max":[0.000005824122581543634,
		1.0,
		0.0],
		"min":[-0.00003297501461929642,
		-1.0,
		-1.0]
	},
	{
		"bufferView":24,
		"type":"VEC2",
		"componentType":5126,
		"count":24,
		"byteOffset":24,
		"max":[1.0,
		1.0],
		"min":[0.0,
		0.0]
	},
	{
		"bufferView":25,
		"type":"SCALAR",
		"componentType":5123,
		"count":138,
		"byteOffset":0,
		"max":[75],
		"min":[0]
	},
	{
		"bufferView":26,
		"type":"VEC3",
		"componentType":5126,
		"count":76,
		"byteOffset":0,
		"max":[30.3120059967041,
		140.7870635986328,
		7.624508380889893],
		"min":[-31.47601890563965,
		124.9947280883789,
		-7.526528835296631]
	},
	{
		"bufferView":26,
		"type":"VEC3",
		"componentType":5126,
		"count":76,
		"byteOffset":12,
		"max":[1.0,
		0.9915434718132019,
		1.0],
		"min":[-1.0,
		-1.0,
		-0.9238793849945068]
	},
	{
		"bufferView":26,
		"type":"VEC2",
		"componentType":5126,
		"count":76,
		"byteOffset":24,
		"max":[0.8859310150146484,
		0.8859310150146484],
		"min":[0.12834101915359498,
		-0.2999534606933594]
	}],
	"bufferViews":[{
		"buffer":0,
		"byteOffset":0,
		"byteLength":64
	},
	{
		"buffer":1,
		"byteOffset":0,
		"byteLength":960,
		"target":34963
	},
	{
		"buffer":1,
		"byteOffset":960,
		"byteLength":3808,
		"target":34962,
		"byteStride":32
	},
	{
		"buffer":2,
		"byteOffset":0,
		"byteLength":960,
		"target":34963
	},
	{
		"buffer":2,
		"byteOffset":960,
		"byteLength":3808,
		"target":34962,
		"byteStride":32
	},
	{
		"buffer":3,
		"byteOffset":0,
		"byteLength":960,
		"target":34963
	},
	{
		"buffer":3,
		"byteOffset":960,
		"byteLength":3808,
		"target":34962,
		"byteStride":32
	},
	{
		"buffer":4,
		"byteOffset":0,
		"byteLength":960,
		"target":34963
	},
	{
		"buffer":4,
		"byteOffset":960,
		"byteLength":3808,
		"target":34962,
		"byteStride":32
	},
	{
		"buffer":5,
		"byteOffset":0,
		"byteLength":960,
		"target":34963
	},
	{
		"buffer":5,
		"byteOffset":960,
		"byteLength":3808,
		"target":34962,
		"byteStride":32
	},
	{
		"buffer":6,
		"byteOffset":0,
		"byteLength":960,
		"target":34963
	},
	{
		"buffer":6,
		"byteOffset":960,
		"byteLength":3808,
		"target":34962,
		"byteStride":32
	},
	{
		"buffer":7,
		"byteOffset":0,
		"byteLength":960,
		"target":34963
	},
	{
		"buffer":7,
		"byteOffset":960,
		"byteLength":3808,
		"target":34962,
		"byteStride":32
	},
	{
		"buffer":8,
		"byteOffset":0,
		"byteLength":960,
		"target":34963
	},
	{
		"buffer":8,
		"byteOffset":960,
		"byteLength":3808,
		"target":34962,
		"byteStride":32
	},
	{
		"buffer":9,
		"byteOffset":0,
		"byteLength":264,
		"target":34963
	},
	{
		"buffer":9,
		"byteOffset":264,
		"byteLength":2048,
		"target":34962,
		"byteStride":32
	},
	{
		"buffer":10,
		"byteOffset":0,
		"byteLength":1248,
		"target":34963
	},
	{
		"buffer":10,
		"byteOffset":1248,
		"byteLength":7040,
		"target":34962,
		"byteStride":32
	},
	{
		"buffer":11,
		"byteOffset":0,
		"byteLength":324,
		"target":34963
	},
	{
		"buffer":11,
		"byteOffset":324,
		"byteLength":2496,
		"target":34962,
		"byteStride":32
	},
	{
		"buffer":12,
		"byteOffset":0,
		"byteLength":108,
		"target":34963
	},
	{
		"buffer":12,
		"byteOffset":108,
		"byteLength":768,
		"target":34962,
		"byteStride":32
	},
	{
		"buffer":13,
		"byteOffset":0,
		"byteLength":276,
		"target":34963
	},
	{
		"buffer":13,
		"byteOffset":276,
		"byteLength":2432,
		"target":34962,
		"byteStride":32
	}],
	"buffers":[{
		"uri":"data:application/octet-stream;base64,",
		"byteLength":64
	},
	{
		"uri":"data:application/octet-stream;base64,",
		"byteLength":4768
	},
	{
		"uri":"data:application/octet-stream;base64,",
		"byteLength":4768
	},
	{
		"uri":"data:application/octet-stream;base64,",
		"byteLength":4768
	},
	{
		"uri":"data:application/octet-stream;base64,",
		"byteLength":4768
	},
	{
		"uri":"data:application/octet-stream;base64,",
		"byteLength":4768
	},
	{
		"uri":"data:application/octet-stream;base64,",
		"byteLength":4768
	},
	{
		"uri":"data:application/octet-stream;base64,",
		"byteLength":4768
	},
	{
		"uri":"data:application/octet-stream;base64,",
		"byteLength":4768
	},
	{
		"uri":"data:application/octet-stream;base64,",
		"byteLength":2312
	},
	{
		"uri":"data:application/octet-stream;base64,",
		"byteLength":8288
	},
	{
		"uri":"data:application/octet-stream;base64,",
		"byteLength":2820
	},
	{
		"uri":"data:application/octet-stream;base64,",
		"byteLength":876
	},
	{
		"uri":"data:application/octet-stream;base64,",
		"byteLength":2708
	}],
	"images":[{
		"uri":"data:image/jpeg;base64,"
	}],
	"samplers":[{
		"magFilter":9729,
		"minFilter":9729,
		"wrapS":10497,
		"wrapT":10497
	}],
	"textures":[{
		"sampler":0,
		"source":0
	}],
	"materials":[{
		"pbrMetallicRoughness":{
			"baseColorFactor":[1.0,
			1.0,
			1.0,
			0.73],
			"metallicFactor":0.08,
			"roughnessFactor":0.09
		},
		"emissiveFactor":[0.0,
		0.0,
		0.0],
		"alphaMode":"BLEND",
		"doubleSided":true,
		"name":"Lens"
	},
	{
		"pbrMetallicRoughness":{
			"baseColorFactor":[0.14,
			0.14,
			0.14,
			1.0],
			"metallicFactor":0.0,
			"roughnessFactor":0.46
		},
		"emissiveFactor":[0.0,
		0.0,
		0.0],
		"alphaMode":"OPAQUE",
		"doubleSided":true,
		"name":"Plastic"
	},
	{
		"pbrMetallicRoughness":{
			"baseColorFactor":[1.0,
			1.0,
			1.0,
			0.33999999999999999],
			"metallicFactor":0.08,
			"roughnessFactor":0.09
		},
		"emissiveFactor":[0.0,
		0.0,
		0.0],
		"alphaMode":"BLEND",
		"doubleSided":true,
		"name":"Glass"
	},
	{
		"pbrMetallicRoughness":{
			"baseColorTexture":{
				"index":0
			},
			"baseColorFactor":[1.0,
			1.0,
			1.0,
			1.0],
			"metallicFactor":0.0,
			"roughnessFactor":0.92
		},
		"emissiveFactor":[0.0,
		0.0,
		0.0],
		"alphaMode":"OPAQUE",
		"doubleSided":true,
		"name":"Mat"
	}],
	"animations":[{
		"samplers":[{
			"input":0,
			"interpolation":"LINEAR",
			"output":1
		}],
		"channels":[{
			"sampler":0,
			"target":{
				"node":0,
				"path":"scale"
			}
		}]
	}]
}