{
	"asset":{
		"version":"2.0",
		"generator":"Created using the official Cinema 4D glTF Exporter 1.000x290161"
	},
	"scenes":[{
		"nodes":[0]
	}],
	"nodes":[{
		"name":"iPhone",
		"translation":[0.0,
		0.0,
		0.0],
		"rotation":[0.0834265872836113,
		0.0,
		0.0,
		-0.9965139031410217],
		"scale":[0.5,
		0.5,
		0.5],
		"children":[1,
		2,
		3,
		4,
		5,
		10,
		11,
		12,
		13,
		14]
	},
	{
		"name":"Cylinder.1",
		"translation":[-46.718326568603519,
		133.3664093017578,
		-5.008429527282715],
		"rotation":[0.0,
		0.0,
		0.0,
		-1.0],
		"scale":[1.0,
		1.0,
		1.0],
		"mesh":0
	},
	{
		"name":"Cylinder",
		"translation":[-24.940404891967775,
		139.36036682128907,
		-5.008429527282715],
		"rotation":[0.0,
		0.0,
		0.0,
		-1.0],
		"scale":[1.0,
		1.0,
		1.0],
		"mesh":1
	},
	{
		"name":"Cylinder.4",
		"translation":[-46.89065933227539,
		155.87051391601563,
		-5.008429527282715],
		"rotation":[0.0,
		0.0,
		0.0,
		-1.0],
		"scale":[1.0,
		1.0,
		1.0],
		"mesh":2
	},
	{
		"name":"Cylinder.3",
		"translation":[-24.371912002563478,
		159.4963836669922,
		-5.163196563720703],
		"rotation":[0.0,
		0.0,
		0.0,
		-1.0],
		"scale":[1.0,
		1.0,
		1.0],
		"mesh":3
	},
	{
		"name":"Null",
		"translation":[0.37191787362098696,
		50.91230010986328,
		4.7490153312683109],
		"rotation":[0.0,
		0.0,
		0.0,
		-1.0],
		"scale":[1.0,
		1.0,
		1.0],
		"children":[6,
		7,
		8,
		9]
	},
	{
		"name":"Cylinder.3",
		"translation":[-24.74382972717285,
		108.58409118652344,
		-9.473838806152344],
		"rotation":[0.0,
		0.0,
		0.0,
		-1.0],
		"scale":[1.0,
		1.0,
		1.0],
		"mesh":4
	},
	{
		"name":"Cylinder.2",
		"translation":[-47.262577056884769,
		82.68143463134766,
		-9.473838806152344],
		"rotation":[0.0,
		0.0,
		0.0,
		-1.0],
		"scale":[1.0,
		1.0,
		1.0],
		"mesh":5
	},
	{
		"name":"Cylinder.1",
		"translation":[-47.262577056884769,
		104.95821380615235,
		-9.473838806152344],
		"rotation":[0.0,
		0.0,
		0.0,
		-1.0],
		"scale":[1.0,
		1.0,
		1.0],
		"mesh":6
	},
	{
		"name":"Cylinder",
		"translation":[-24.74382972717285,
		88.11224365234375,
		-9.473838806152344],
		"rotation":[0.0,
		0.0,
		0.0,
		-1.0],
		"scale":[1.0,
		1.0,
		1.0],
		"mesh":7
	},
	{
		"name":"Cube",
		"translation":[-36.00352096557617,
		144.38360595703126,
		-3.2060980796813967],
		"rotation":[0.0,
		0.0,
		0.0,
		-1.0],
		"scale":[1.0,
		1.0,
		1.0],
		"mesh":8
	},
	{
		"name":"Body",
		"translation":[-4.34773063659668,
		38.97014617919922,
		3.1312477588653566],
		"rotation":[0.0,
		0.0,
		0.0,
		-1.0],
		"scale":[1.0,
		1.0,
		1.0],
		"mesh":9
	},
	{
		"name":"Glass",
		"translation":[-4.105614185333252,
		38.818817138671878,
		10.704800605773926],
		"rotation":[0.0,
		0.0,
		0.0,
		-1.0],
		"scale":[1.0,
		1.0,
		1.0],
		"mesh":10
	},
	{
		"name":"Screen",
		"translation":[-4.105614185333252,
		38.818817138671878,
		9.46859359741211],
		"rotation":[0.0,
		0.0,
		0.0,
		-1.0],
		"scale":[1.0,
		1.0,
		1.0],
		"mesh":11
	},
	{
		"name":"Helmet",
		"translation":[-4.34773063659668,
		38.97014617919922,
		3.1312477588653566],
		"rotation":[0.0,
		0.0,
		0.0,
		-1.0],
		"scale":[1.0,
		1.0,
		1.0],
		"mesh":12
	}],
	"meshes":[{
		"primitives":[{
			"attributes":{
				"POSITION":1,
				"NORMAL":2,
				"TEXCOORD_0":3
			},
			"indices":0,
			"material":0
		}]
	},
	{
		"primitives":[{
			"attributes":{
				"POSITION":5,
				"NORMAL":6,
				"TEXCOORD_0":7
			},
			"indices":4,
			"material":0
		}]
	},
	{
		"primitives":[{
			"attributes":{
				"POSITION":9,
				"NORMAL":10,
				"TEXCOORD_0":11
			},
			"indices":8,
			"material":0
		}]
	},
	{
		"primitives":[{
			"attributes":{
				"POSITION":13,
				"NORMAL":14,
				"TEXCOORD_0":15
			},
			"indices":12,
			"material":0
		}]
	},
	{
		"primitives":[{
			"attributes":{
				"POSITION":17,
				"NORMAL":18,
				"TEXCOORD_0":19
			},
			"indices":16,
			"material":1
		}]
	},
	{
		"primitives":[{
			"attributes":{
				"POSITION":21,
				"NORMAL":22,
				"TEXCOORD_0":23
			},
			"indices":20,
			"material":1
		}]
	},
	{
		"primitives":[{
			"attributes":{
				"POSITION":25,
				"NORMAL":26,
				"TEXCOORD_0":27
			},
			"indices":24,
			"material":1
		}]
	},
	{
		"primitives":[{
			"attributes":{
				"POSITION":29,
				"NORMAL":30,
				"TEXCOORD_0":31
			},
			"indices":28,
			"material":1
		}]
	},
	{
		"primitives":[{
			"attributes":{
				"POSITION":33,
				"NORMAL":34,
				"TEXCOORD_0":35
			},
			"indices":32,
			"material":1
		}]
	},
	{
		"primitives":[{
			"attributes":{
				"POSITION":37,
				"NORMAL":38,
				"TEXCOORD_0":39
			},
			"indices":36,
			"material":1
		}]
	},
	{
		"primitives":[{
			"attributes":{
				"POSITION":41,
				"NORMAL":42,
				"TEXCOORD_0":43
			},
			"indices":40,
			"material":2
		}]
	},
	{
		"primitives":[{
			"attributes":{
				"POSITION":45,
				"NORMAL":46,
				"TEXCOORD_0":47
			},
			"indices":44,
			"material":3
		}]
	},
	{
		"primitives":[{
			"attributes":{
				"POSITION":49,
				"NORMAL":50,
				"TEXCOORD_0":51
			},
			"indices":48,
			"material":1
		}]
	}],
	"accessors":[{
		"bufferView":0,
		"type":"SCALAR",
		"componentType":5123,
		"count":480,
		"byteOffset":0,
		"min":[0],
		"max":[118]
	},
	{
		"bufferView":1,
		"type":"VEC3",
		"componentType":5126,
		"count":119,
		"byteOffset":0,
		"min":[-8.559698104858399,
		-8.559698104858399,
		-1.0],
		"max":[8.559698104858399,
		8.559698104858399,
		1.0]
	},
	{
		"bufferView":1,
		"type":"VEC3",
		"componentType":5126,
		"count":119,
		"byteOffset":12,
		"min":[-1.0,
		-1.0,
		-1.0],
		"max":[1.0,
		1.0,
		1.0]
	},
	{
		"bufferView":1,
		"type":"VEC2",
		"componentType":5126,
		"count":119,
		"byteOffset":24,
		"min":[0.0,
		0.0],
		"max":[1.0,
		1.0]
	},
	{
		"bufferView":2,
		"type":"SCALAR",
		"componentType":5123,
		"count":480,
		"byteOffset":0,
		"min":[0],
		"max":[118]
	},
	{
		"bufferView":3,
		"type":"VEC3",
		"componentType":5126,
		"count":119,
		"byteOffset":0,
		"min":[-8.559698104858399,
		-8.559698104858399,
		-1.0],
		"max":[8.559698104858399,
		8.559698104858399,
		1.0]
	},
	{
		"bufferView":3,
		"type":"VEC3",
		"componentType":5126,
		"count":119,
		"byteOffset":12,
		"min":[-1.0,
		-1.0,
		-1.0],
		"max":[1.0,
		1.0,
		1.0]
	},
	{
		"bufferView":3,
		"type":"VEC2",
		"componentType":5126,
		"count":119,
		"byteOffset":24,
		"min":[0.0,
		0.0],
		"max":[1.0,
		1.0]
	},
	{
		"bufferView":4,
		"type":"SCALAR",
		"componentType":5123,
		"count":480,
		"byteOffset":0,
		"min":[0],
		"max":[118]
	},
	{
		"bufferView":5,
		"type":"VEC3",
		"componentType":5126,
		"count":119,
		"byteOffset":0,
		"min":[-8.559698104858399,
		-8.559698104858399,
		-1.0],
		"max":[8.559698104858399,
		8.559698104858399,
		1.0]
	},
	{
		"bufferView":5,
		"type":"VEC3",
		"componentType":5126,
		"count":119,
		"byteOffset":12,
		"min":[-1.0,
		-1.0,
		-1.0],
		"max":[1.0,
		1.0,
		1.0]
	},
	{
		"bufferView":5,
		"type":"VEC2",
		"componentType":5126,
		"count":119,
		"byteOffset":24,
		"min":[0.0,
		0.0],
		"max":[1.0,
		1.0]
	},
	{
		"bufferView":6,
		"type":"SCALAR",
		"componentType":5123,
		"count":480,
		"byteOffset":0,
		"min":[0],
		"max":[118]
	},
	{
		"bufferView":7,
		"type":"VEC3",
		"componentType":5126,
		"count":119,
		"byteOffset":0,
		"min":[-3.5193750858306886,
		-3.5193750858306886,
		-1.0],
		"max":[3.5193750858306886,
		3.5193750858306886,
		1.0]
	},
	{
		"bufferView":7,
		"type":"VEC3",
		"componentType":5126,
		"count":119,
		"byteOffset":12,
		"min":[-1.0,
		-1.0,
		-1.0],
		"max":[1.0,
		1.0,
		1.0]
	},
	{
		"bufferView":7,
		"type":"VEC2",
		"componentType":5126,
		"count":119,
		"byteOffset":24,
		"min":[0.0,
		0.0],
		"max":[1.0,
		1.0]
	},
	{
		"bufferView":8,
		"type":"SCALAR",
		"componentType":5123,
		"count":480,
		"byteOffset":0,
		"min":[0],
		"max":[118]
	},
	{
		"bufferView":9,
		"type":"VEC3",
		"componentType":5126,
		"count":119,
		"byteOffset":0,
		"min":[-4.851763725280762,
		-4.851763725280762,
		-1.0],
		"max":[4.851763725280762,
		4.851763725280762,
		1.0]
	},
	{
		"bufferView":9,
		"type":"VEC3",
		"componentType":5126,
		"count":119,
		"byteOffset":12,
		"min":[-1.0,
		-1.0,
		-1.0],
		"max":[1.0,
		1.0,
		1.0]
	},
	{
		"bufferView":9,
		"type":"VEC2",
		"componentType":5126,
		"count":119,
		"byteOffset":24,
		"min":[0.0,
		0.0],
		"max":[1.0,
		1.0]
	},
	{
		"bufferView":10,
		"type":"SCALAR",
		"componentType":5123,
		"count":480,
		"byteOffset":0,
		"min":[0],
		"max":[118]
	},
	{
		"bufferView":11,
		"type":"VEC3",
		"componentType":5126,
		"count":119,
		"byteOffset":0,
		"min":[-9.870723724365235,
		-9.870723724365235,
		-1.0],
		"max":[9.870723724365235,
		9.870723724365235,
		1.0]
	},
	{
		"bufferView":11,
		"type":"VEC3",
		"componentType":5126,
		"count":119,
		"byteOffset":12,
		"min":[-1.0,
		-1.0,
		-1.0],
		"max":[1.0,
		1.0,
		1.0]
	},
	{
		"bufferView":11,
		"type":"VEC2",
		"componentType":5126,
		"count":119,
		"byteOffset":24,
		"min":[0.0,
		0.0],
		"max":[1.0,
		1.0]
	},
	{
		"bufferView":12,
		"type":"SCALAR",
		"componentType":5123,
		"count":480,
		"byteOffset":0,
		"min":[0],
		"max":[118]
	},
	{
		"bufferView":13,
		"type":"VEC3",
		"componentType":5126,
		"count":119,
		"byteOffset":0,
		"min":[-9.870723724365235,
		-9.870723724365235,
		-1.0],
		"max":[9.870723724365235,
		9.870723724365235,
		1.0]
	},
	{
		"bufferView":13,
		"type":"VEC3",
		"componentType":5126,
		"count":119,
		"byteOffset":12,
		"min":[-1.0,
		-1.0,
		-1.0],
		"max":[1.0,
		1.0,
		1.0]
	},
	{
		"bufferView":13,
		"type":"VEC2",
		"componentType":5126,
		"count":119,
		"byteOffset":24,
		"min":[0.0,
		0.0],
		"max":[1.0,
		1.0]
	},
	{
		"bufferView":14,
		"type":"SCALAR",
		"componentType":5123,
		"count":480,
		"byteOffset":0,
		"min":[0],
		"max":[118]
	},
	{
		"bufferView":15,
		"type":"VEC3",
		"componentType":5126,
		"count":119,
		"byteOffset":0,
		"min":[-9.870723724365235,
		-9.870723724365235,
		-1.0],
		"max":[9.870723724365235,
		9.870723724365235,
		1.0]
	},
	{
		"bufferView":15,
		"type":"VEC3",
		"componentType":5126,
		"count":119,
		"byteOffset":12,
		"min":[-1.0,
		-1.0,
		-1.0],
		"max":[1.0,
		1.0,
		1.0]
	},
	{
		"bufferView":15,
		"type":"VEC2",
		"componentType":5126,
		"count":119,
		"byteOffset":24,
		"min":[0.0,
		0.0],
		"max":[1.0,
		1.0]
	},
	{
		"bufferView":16,
		"type":"SCALAR",
		"componentType":5123,
		"count":132,
		"byteOffset":0,
		"min":[0],
		"max":[63]
	},
	{
		"bufferView":17,
		"type":"VEC3",
		"componentType":5126,
		"count":64,
		"byteOffset":0,
		"min":[-22.79503631591797,
		-22.79503631591797,
		-1.5187256336212159],
		"max":[22.79503631591797,
		22.79503631591797,
		1.5187256336212159]
	},
	{
		"bufferView":17,
		"type":"VEC3",
		"componentType":5126,
		"count":64,
		"byteOffset":12,
		"min":[-0.9915434718132019,
		-0.9807852506637573,
		-1.0],
		"max":[0.9915434718132019,
		0.9807852506637573,
		1.0]
	},
	{
		"bufferView":17,
		"type":"VEC2",
		"componentType":5126,
		"count":64,
		"byteOffset":24,
		"min":[-0.12850642204284669,
		-0.12850642204284669],
		"max":[1.1285064220428467,
		1.1285064220428467]
	},
	{
		"bufferView":18,
		"type":"SCALAR",
		"componentType":5123,
		"count":624,
		"byteOffset":0,
		"min":[0],
		"max":[219]
	},
	{
		"bufferView":19,
		"type":"VEC3",
		"componentType":5126,
		"count":220,
		"byteOffset":0,
		"min":[-67.31346893310547,
		-139.49989318847657,
		-6.337345600128174],
		"max":[67.31346893310547,
		139.49989318847657,
		6.337345600128174]
	},
	{
		"bufferView":19,
		"type":"VEC3",
		"componentType":5126,
		"count":220,
		"byteOffset":12,
		"min":[-0.956570029258728,
		-0.9701046347618103,
		-0.9967184066772461],
		"max":[0.956570029258728,
		0.9915434718132019,
		1.0]
	},
	{
		"bufferView":19,
		"type":"VEC2",
		"componentType":5126,
		"count":220,
		"byteOffset":24,
		"min":[-0.2999534010887146,
		-0.2999534606933594],
		"max":[1.2999534606933594,
		1.2999534606933594]
	},
	{
		"bufferView":20,
		"type":"SCALAR",
		"componentType":5123,
		"count":162,
		"byteOffset":0,
		"min":[0],
		"max":[77]
	},
	{
		"bufferView":21,
		"type":"VEC3",
		"componentType":5126,
		"count":78,
		"byteOffset":0,
		"min":[-61.68846130371094,
		-134.0419158935547,
		-0.5013467073440552],
		"max":[61.68845748901367,
		134.0419158935547,
		0.05000000074505806]
	},
	{
		"bufferView":21,
		"type":"VEC3",
		"componentType":5126,
		"count":78,
		"byteOffset":12,
		"min":[-1.0,
		-1.0,
		-0.000010419885256851558],
		"max":[1.0,
		0.9919793009757996,
		1.0]
	},
	{
		"bufferView":21,
		"type":"VEC2",
		"componentType":5126,
		"count":78,
		"byteOffset":24,
		"min":[0.0,
		0.0],
		"max":[1.0,
		1.0]
	},
	{
		"bufferView":22,
		"type":"SCALAR",
		"componentType":5123,
		"count":54,
		"byteOffset":0,
		"min":[0],
		"max":[21]
	},
	{
		"bufferView":23,
		"type":"VEC3",
		"componentType":5126,
		"count":22,
		"byteOffset":0,
		"min":[-61.68845748901367,
		-134.0419158935547,
		0.04780000075697899],
		"max":[61.68845748901367,
		134.0419158935547,
		0.05000000074505806]
	},
	{
		"bufferView":23,
		"type":"VEC3",
		"componentType":5126,
		"count":22,
		"byteOffset":12,
		"min":[-0.000005824121672048932,
		-0.00007938049384392798,
		0.0],
		"max":[0.000032975018257275227,
		0.0000024249147827504204,
		1.0]
	},
	{
		"bufferView":23,
		"type":"VEC2",
		"componentType":5126,
		"count":22,
		"byteOffset":24,
		"min":[0.0,
		0.0],
		"max":[1.0,
		1.0]
	},
	{
		"bufferView":24,
		"type":"SCALAR",
		"componentType":5123,
		"count":138,
		"byteOffset":0,
		"min":[0],
		"max":[75]
	},
	{
		"bufferView":25,
		"type":"VEC3",
		"componentType":5126,
		"count":76,
		"byteOffset":0,
		"min":[-31.47601890563965,
		124.9947280883789,
		-7.526528835296631],
		"max":[30.3120059967041,
		140.7870635986328,
		7.624508380889893]
	},
	{
		"bufferView":25,
		"type":"VEC3",
		"componentType":5126,
		"count":76,
		"byteOffset":12,
		"min":[-1.0,
		-1.0,
		-0.9238793849945068],
		"max":[1.0,
		0.9915434718132019,
		1.0]
	},
	{
		"bufferView":25,
		"type":"VEC2",
		"componentType":5126,
		"count":76,
		"byteOffset":24,
		"min":[0.12834101915359498,
		-0.2999534606933594],
		"max":[0.8859310150146484,
		0.8859310150146484]
	}],
	"bufferViews":[{
		"buffer":0,
		"byteLength":960,
		"byteOffset":0,
		"target":34963
	},
	{
		"buffer":0,
		"byteLength":3808,
		"byteOffset":960,
		"target":34962,
		"byteStride":32
	},
	{
		"buffer":1,
		"byteLength":960,
		"byteOffset":0,
		"target":34963
	},
	{
		"buffer":1,
		"byteLength":3808,
		"byteOffset":960,
		"target":34962,
		"byteStride":32
	},
	{
		"buffer":2,
		"byteLength":960,
		"byteOffset":0,
		"target":34963
	},
	{
		"buffer":2,
		"byteLength":3808,
		"byteOffset":960,
		"target":34962,
		"byteStride":32
	},
	{
		"buffer":3,
		"byteLength":960,
		"byteOffset":0,
		"target":34963
	},
	{
		"buffer":3,
		"byteLength":3808,
		"byteOffset":960,
		"target":34962,
		"byteStride":32
	},
	{
		"buffer":4,
		"byteLength":960,
		"byteOffset":0,
		"target":34963
	},
	{
		"buffer":4,
		"byteLength":3808,
		"byteOffset":960,
		"target":34962,
		"byteStride":32
	},
	{
		"buffer":5,
		"byteLength":960,
		"byteOffset":0,
		"target":34963
	},
	{
		"buffer":5,
		"byteLength":3808,
		"byteOffset":960,
		"target":34962,
		"byteStride":32
	},
	{
		"buffer":6,
		"byteLength":960,
		"byteOffset":0,
		"target":34963
	},
	{
		"buffer":6,
		"byteLength":3808,
		"byteOffset":960,
		"target":34962,
		"byteStride":32
	},
	{
		"buffer":7,
		"byteLength":960,
		"byteOffset":0,
		"target":34963
	},
	{
		"buffer":7,
		"byteLength":3808,
		"byteOffset":960,
		"target":34962,
		"byteStride":32
	},
	{
		"buffer":8,
		"byteLength":264,
		"byteOffset":0,
		"target":34963
	},
	{
		"buffer":8,
		"byteLength":2048,
		"byteOffset":264,
		"target":34962,
		"byteStride":32
	},
	{
		"buffer":9,
		"byteLength":1248,
		"byteOffset":0,
		"target":34963
	},
	{
		"buffer":9,
		"byteLength":7040,
		"byteOffset":1248,
		"target":34962,
		"byteStride":32
	},
	{
		"buffer":10,
		"byteLength":324,
		"byteOffset":0,
		"target":34963
	},
	{
		"buffer":10,
		"byteLength":2496,
		"byteOffset":324,
		"target":34962,
		"byteStride":32
	},
	{
		"buffer":11,
		"byteLength":108,
		"byteOffset":0,
		"target":34963
	},
	{
		"buffer":11,
		"byteLength":704,
		"byteOffset":108,
		"target":34962,
		"byteStride":32
	},
	{
		"buffer":12,
		"byteLength":276,
		"byteOffset":0,
		"target":34963
	},
	{
		"buffer":12,
		"byteLength":2432,
		"byteOffset":276,
		"target":34962,
		"byteStride":32
	}],
	"buffers":[{
		"uri":"data:application/octet-stream;base64,",
		"byteLength":4768
	},
	{
		"uri":"data:application/octet-stream;base64,",
		"byteLength":4768
	},
	{
		"uri":"data:application/octet-stream;base64,",
		"byteLength":4768
	},
	{
		"uri":"data:application/octet-stream;base64,",
		"byteLength":4768
	},
	{
		"uri":"data:application/octet-stream;base64,",
		"byteLength":4768
	},
	{
		"uri":"data:application/octet-stream;base64,",
		"byteLength":4768
	},
	{
		"uri":"data:application/octet-stream;base64,",
		"byteLength":4768
	},
	{
		"uri":"data:application/octet-stream;base64,",
		"byteLength":4768
	},
	{
		"uri":"data:application/octet-stream;base64,",
		"byteLength":2312
	},
	{
		"uri":"data:application/octet-stream;base64,",
		"byteLength":8288
	},
	{
		"uri":"data:application/octet-stream;base64,",
		"byteLength":2820
	},
	{
		"uri":"data:application/octet-stream;base64,",
		"byteLength":812
	},
	{
		"uri":"data:application/octet-stream;base64,",
		"byteLength":2708
	}],
	"images":[{
		"uri":"data:image/jpeg;base64,"
	}],
	"samplers":[{
		"magFilter":9729,
		"minFilter":9729,
		"wrapS":10497,
		"wrapT":10497
	}],
	"textures":[{
		"sampler":0,
		"source":0
	}],
	"materials":[{
		"pbrMetallicRoughness":{
			"baseColorFactor":[1.0,
			1.0,
			1.0,
			0.73],
			"metallicFactor":0.08,
			"roughnessFactor":0.09
		},
		"emissiveFactor":[0.0,
		0.0,
		0.0],
		"alphaMode":"BLEND",
		"doubleSided":true,
		"name":"Lens"
	},
	{
		"pbrMetallicRoughness":{
			"baseColorFactor":[0.14,
			0.14,
			0.14,
			1.0],
			"metallicFactor":0.0,
			"roughnessFactor":0.46
		},
		"emissiveFactor":[0.0,
		0.0,
		0.0],
		"alphaMode":"OPAQUE",
		"doubleSided":true,
		"name":"Plastic"
	},
	{
		"pbrMetallicRoughness":{
			"baseColorFactor":[1.0,
			1.0,
			1.0,
			0.33999999999999999],
			"metallicFactor":0.08,
			"roughnessFactor":0.09
		},
		"emissiveFactor":[0.0,
		0.0,
		0.0],
		"alphaMode":"BLEND",
		"doubleSided":true,
		"name":"Glass"
	},
	{
		"pbrMetallicRoughness":{
			"baseColorTexture":{
				"index":0
			},
			"baseColorFactor":[1.0,
			1.0,
			1.0,
			1.0],
			"metallicFactor":0.0,
			"roughnessFactor":0.92
		},
		"emissiveFactor":[0.0,
		0.0,
		0.0],
		"alphaMode":"OPAQUE",
		"doubleSided":true,
		"name":"Mat"
	}]
}